<svg xmlns="http://www.w3.org/2000/svg" viewBox="0 0 130 180" width="48" height="48">
  <defs>
    <linearGradient id="bFront" x1="0" y1="0" x2="0" y2="1">
      <stop offset="0%" stop-color="#E50914"/>
      <stop offset="100%" stop-color="#B0070F"/>
    </linearGradient>
    <linearGradient id="bFold" x1="0" y1="0" x2="0" y2="1">
      <stop offset="0%" stop-color="#7A0008"/>
      <stop offset="100%" stop-color="#3D0004"/>
    </linearGradient>
  </defs>

  <!-- Dark "fold" base layer (peeks out behind the bumps to suggest depth) -->
  <path fill="url(#bFold)" d="M40 12 L52 12 L52 168 L40 168 Z"/>

  <!-- Main B silhouette (front bright layer) with two counter holes -->
  <path
    fill="url(#bFront)"
    fill-rule="evenodd"
    d="M18 12 L75 12 Q105 12 105 48 Q105 70 86 78 Q110 86 110 120 Q110 168 78 168 L18 168 Z
       M40 32 L40 70 L70 70 Q85 70 85 51 Q85 32 70 32 Z
       M40 88 L40 148 L75 148 Q92 148 92 118 Q92 88 75 88 Z"
  />
</svg>
